<svg width="54" height="53" viewBox="0 0 54 53" fill="none" xmlns="http://www.w3.org/2000/svg">
<ellipse cx="27.0837" cy="26.3832" rx="26.1688" ry="25.9028" fill="#B548C6"/>
<path fill-rule="evenodd" clip-rule="evenodd" d="M19.4512 30.473C19.4512 31.2729 19.8093 31.9909 20.3694 32.4907V34.1085C20.3694 34.6084 20.7826 35.0174 21.2876 35.0174H22.2058C22.7108 35.0174 23.124 34.6084 23.124 34.1085V33.1997H30.4696V34.1085C30.4696 34.6084 30.8828 35.0174 31.3878 35.0174H32.306C32.811 35.0174 33.2242 34.6084 33.2242 34.1085V32.4907C33.7843 31.9909 34.1424 31.2729 34.1424 30.473V21.3843C34.1424 18.2033 30.8553 17.7488 26.7968 17.7488C22.7383 17.7488 19.4512 18.2033 19.4512 21.3843V30.473ZM22.665 31.382C21.9029 31.382 21.2877 30.773 21.2877 30.0187C21.2877 29.2643 21.9029 28.6553 22.665 28.6553C23.4271 28.6553 24.0423 29.2643 24.0423 30.0187C24.0423 30.773 23.4271 31.382 22.665 31.382ZM30.9288 31.382C30.1667 31.382 29.5515 30.773 29.5515 30.0187C29.5515 29.2643 30.1667 28.6553 30.9288 28.6553C31.6909 28.6553 32.3061 29.2643 32.3061 30.0187C32.3061 30.773 31.6909 31.382 30.9288 31.382ZM32.3062 25.9287H21.2877V21.3843H32.3062V25.9287Z" fill="white"/>
</svg>
