<svg width="54" height="53" viewBox="0 0 54 53" fill="none" xmlns="http://www.w3.org/2000/svg">
<ellipse cx="27.0837" cy="26.1989" rx="26.1688" ry="25.9028" fill="#32A7E2"/>
<path fill-rule="evenodd" clip-rule="evenodd" d="M23.5946 31.3795C22.6351 31.3795 21.8588 32.1566 21.8588 33.1064C21.8588 34.0561 22.6351 34.8332 23.5946 34.8332C24.5542 34.8332 25.3392 34.0561 25.3392 33.1064C25.3392 32.1566 24.5542 31.3795 23.5946 31.3795ZM18.3608 17.5646V19.2914H20.1054L23.2457 25.8449L22.0681 27.9603C21.9285 28.202 21.85 28.4869 21.85 28.7891C21.85 29.7389 22.6351 30.516 23.5946 30.516H34.0621V28.7891H23.961C23.8388 28.7891 23.7429 28.6942 23.7429 28.5733L23.7691 28.4697L24.5541 27.0623H31.0527C31.7069 27.0623 32.2826 26.7083 32.5792 26.173L35.702 20.5693C35.7718 20.4484 35.8067 20.3016 35.8067 20.1549C35.8067 19.68 35.4142 19.2914 34.9344 19.2914H22.0332L21.2132 17.5646H18.3608ZM32.3174 31.3795C31.3579 31.3795 30.5815 32.1566 30.5815 33.1064C30.5815 34.0561 31.3579 34.8332 32.3174 34.8332C33.2769 34.8332 34.062 34.0561 34.062 33.1064C34.062 32.1566 33.2769 31.3795 32.3174 31.3795Z" fill="white"/>
</svg>
