<svg width="39" height="39" viewBox="0 0 39 39" fill="none" xmlns="http://www.w3.org/2000/svg">
<circle cx="19.9032" cy="19.9032" r="18.5" fill="#D94F00" stroke="white" stroke-width="1.19355"/>
<path fill-rule="evenodd" clip-rule="evenodd" d="M7.52661 7.54529H31.9479V32.2608H7.52661V7.54529Z" fill="#D94F00"/>
<path fill-rule="evenodd" clip-rule="evenodd" d="M21.4201 12.3358H27.6806V18.6088H21.4201V12.3358ZM13.8517 21.7819V22.3956H14.9306V25.6422H15.6746V22.3708H16.6792V21.7571L13.8517 21.7823V21.7819ZM13.296 22.5427V21.929C12.6991 21.6592 12.0127 21.5776 11.3099 21.929C10.1574 22.4444 10.1162 24.9962 11.2691 25.4951C11.9312 25.8305 13.3119 25.675 13.4511 25.3804V23.3603H12.0783V23.892H12.6827V24.9554C10.6966 25.9205 10.3289 21.283 13.296 22.5427ZM17.8894 23.8592H18.6001C19.1886 23.884 19.3441 24.9962 18.5758 24.9878H17.8894V23.8592ZM17.8894 22.2972H18.6001C19.1886 22.4036 18.9763 23.2787 18.5758 23.3031H17.8894V22.2972ZM17.1538 21.7004V25.6095H19.1071C20.1041 25.2496 20.1453 23.7041 19.1071 23.5402C20.0633 23.4342 20.1125 21.6756 18.4614 21.6756L17.1538 21.7004ZM20.6026 22.7962V23.3767C21.1255 23.2295 22.2616 22.8206 22.1553 23.6877C21.1583 23.6221 20.4799 23.802 20.3655 24.4233C20.1776 25.765 21.616 25.8957 22.2209 25.2333V25.5523H22.9073V23.1968C22.7358 22.436 21.6 22.338 20.6026 22.7962ZM21.1827 24.3094C21.3382 24.1047 21.8367 24.1127 22.1717 24.211V24.7263C21.6244 25.3148 20.7417 25.0454 21.1831 24.3089L21.1827 24.3094ZM24.3297 23.4914C24.5096 23.2951 25.4658 22.9269 25.6129 23.4914V25.5687H26.3809V23.3687C26.2174 22.4523 25.3427 22.2888 24.2805 22.9105V22.5671H23.5533V25.5851H24.3213L24.3297 23.4914ZM28.7919 22.5343L27.7869 23.8836L28.8495 25.5439L29.773 25.5195L28.6044 23.9248L29.6586 22.5587L28.7923 22.5343H28.7919ZM26.9534 21.5444H27.7133V25.5439H26.953V21.5448L26.9534 21.5444Z" fill="white"/>
<path fill-rule="evenodd" clip-rule="evenodd" d="M21.4207 12.3358H27.6811V18.6088H21.4207V12.3358Z" fill="white"/>
</svg>
