<svg width="54" height="53" viewBox="0 0 54 53" fill="none" xmlns="http://www.w3.org/2000/svg">
<ellipse cx="27.0837" cy="26.7516" rx="26.1688" ry="25.9028" fill="#DC3434"/>
<path fill-rule="evenodd" clip-rule="evenodd" d="M36.2441 31.8724H35.7846C35.2272 31.8724 35.2487 31.3465 35.2487 31.3465C35.2487 31.3465 35.245 31.3478 35.2441 31.3478C34.9339 28.2598 32.9016 25.6798 30.1093 24.5561C30.1014 24.5521 30.0958 24.5482 30.0879 24.5446C29.6351 24.3485 29.6243 23.9094 29.6243 23.9094V22.7308C29.6243 21.9715 29.0029 21.3552 28.2349 21.3552H25.7447C24.9773 21.3552 24.355 21.9715 24.355 22.7308V24.0845C24.3424 24.198 24.2746 24.3865 23.9785 24.5106C23.9595 24.5188 23.9451 24.5267 23.9297 24.5336C21.1139 25.6422 19.0574 28.2261 18.737 31.3262L18.7333 31.325C18.7333 31.325 18.6874 31.8724 18.1588 31.8724H17.8149C17.7057 31.8749 17.2704 31.9128 17.2704 32.357V32.7124C17.2768 32.8647 17.3437 33.2274 17.8477 33.2274H36.1099C36.6093 33.2274 36.696 32.9075 36.7089 32.7473V32.3856C36.7089 31.9583 36.4005 31.883 36.2441 31.8724ZM28.6211 23.5441C28.6183 23.654 28.576 24.0597 28.0619 24.0123C28.0337 24.0096 28.015 24.0105 27.996 24.0114C27.6655 23.9711 27.3319 23.9441 26.9898 23.9441C26.6008 23.9441 26.2203 23.9814 25.8451 24.0339C25.819 24.0327 25.789 24.0339 25.7519 24.0384C25.3438 24.0864 25.2724 23.8333 25.2626 23.7034V23.0768C25.2626 22.5925 25.6587 22.1998 26.1483 22.1998H27.7357C28.225 22.1998 28.6214 22.5925 28.6214 23.0768V23.5441H28.6211ZM32.4209 31.8657H31.7191C31.3601 31.8657 31.2688 31.6749 31.2479 31.5413C31.2479 31.5095 31.2464 31.4658 31.2445 31.4142C31.2206 30.7168 31.0404 28.3238 29.7037 26.4308L29.7102 26.4305L29.5556 26.1714C29.5391 26.0761 29.5449 25.9374 29.781 26.1319C30.9395 27.12 32.652 29.0017 32.7504 31.5705C32.744 31.6818 32.694 31.8657 32.4209 31.8657Z" fill="white"/>
</svg>
