<svg width="36" height="36" viewBox="0 0 36 36" fill="none" xmlns="http://www.w3.org/2000/svg">
<circle cx="17.9355" cy="17.9032" r="17.3064" fill="#005199" stroke="white" stroke-width="1.19355"/>
<path fill-rule="evenodd" clip-rule="evenodd" d="M26.406 9.56122C26.3601 9.04772 26.0521 8.61703 25.5701 8.51489C23.0605 7.97174 20.5006 7.68954 17.932 7.67285C15.3664 7.69126 12.8097 7.97532 10.3037 8.52041C9.81881 8.62256 9.51507 9.05323 9.4677 9.56674C9.27125 11.6911 8.81424 17.1989 9.04971 19.402C9.60703 24.6267 13.4316 27.9037 17.9348 29.4125C18.5169 29.2196 19.0881 28.9957 19.6457 28.7416L11.9715 13.5091L11.2191 12.9376C11.1609 12.8938 11.1135 12.8375 11.0804 12.773C11.0474 12.7084 11.0295 12.6373 11.0282 12.5649V10.2003C11.0275 10.1692 11.0329 10.1383 11.0443 10.1093C11.0557 10.0803 11.0728 10.0538 11.0945 10.0313C11.1163 10.0089 11.1423 9.99089 11.1711 9.97844C11.1999 9.96599 11.2309 9.95931 11.2623 9.95877C11.3125 9.95964 11.3612 9.97605 11.4016 10.0057L13.2575 11.4261C13.3158 11.472 13.3626 11.5307 13.3943 11.5975C13.4259 11.6643 13.4416 11.7375 13.44 11.8112V12.7499C14.3513 12.2479 15.3898 12.0183 16.43 12.0887C18.1215 12.1757 19.2835 13.3241 21.3066 13.4346C22.9423 13.5188 24.0625 12.9445 24.8985 12.4683C24.9877 13.6761 25.0726 15.0137 25.1144 16.2174L25.1423 17.4114C24.2213 18.1748 22.7124 18.8457 21.8527 18.8457C20.433 18.8457 19.466 17.9291 18.1215 17.9291C17.488 17.9289 16.8698 18.1216 16.3506 18.4812L21.1059 27.9741C24.1336 26.1686 26.413 23.3402 26.8185 19.3978C27.0609 17.1933 26.5983 11.6856 26.406 9.56122ZM17.0305 27.1556L16.5875 26.9513C13.4386 25.3942 11.1675 22.8115 10.7858 19.2059C10.6827 18.2162 10.7342 16.4065 10.8457 14.5637L17.0305 27.1556ZM21.3052 11.8734C19.2821 11.7615 18.1702 10.7028 16.4802 10.6144C15.877 10.5818 15.2727 10.6552 14.6954 10.8312L13.1627 9.81797L13.2045 9.8083C14.7681 9.58085 16.3461 9.46368 17.9264 9.45769C20.2009 9.47215 22.4684 9.70748 24.6965 10.1603L24.7759 10.9747C23.9538 11.4261 22.8712 11.9493 21.3052 11.8665V11.8734ZM21.6605 25.4425L19.0675 20.2854C18.9352 20.0296 18.7561 19.8002 18.5395 19.609C19.3434 19.8685 20.3062 20.498 21.8513 20.498C23.338 20.498 24.5989 19.6049 25.0991 19.1328C24.8219 21.8218 23.5428 23.9034 21.6605 25.4356V25.4425Z" fill="white"/>
</svg>
